<?xml version="1.0" encoding="utf-8"?>
<!-- Generator: Adobe Illustrator 28.0.0, SVG Export Plug-In . SVG Version: 6.00 Build 0)  -->
<svg version="1.1" id="Слой_1" xmlns="http://www.w3.org/2000/svg" xmlns:xlink="http://www.w3.org/1999/xlink" x="0px" y="0px"
	 viewBox="0 0 51 48" style="enable-background:new 0 0 51 48;" xml:space="preserve">
<style type="text/css">
	.st0{fill:none;stroke:#FFFFFF;stroke-width:2.8;stroke-linecap:round;stroke-linejoin:round;}
</style>
<path class="st0" d="M23.3,30.1c0,1.8,0.8,3.6,2.2,4.8c1.4,1.3,3.2,2.1,5.2,2.1s3.8-0.7,5.2-2.1c1.4-1.3,2.2-3.1,2.2-4.8
	c0-1.7-0.8-3.6-2.2-4.8c-1.4-1.3-3.2-2.1-5.2-2.1s-3.8,0.7-5.2,2.1C24.1,26.5,23.3,28.2,23.3,30.1z"/>
<path class="st0" d="M25.8,35.8v10.3l4.8-3.4l4.8,3.4V35.8"/>
<path class="st0" d="M18.4,39.3H6.2c-1.3,0-2.5-0.5-3.4-1.4s-1.4-2.1-1.4-3.2v-23c0-2.5,2.2-4.6,4.8-4.6h34.2c1.3,0,2.5,0.5,3.4,1.4
	s1.4,2.1,1.4,3.2v23c0,0.8-0.2,1.6-0.7,2.3s-1,1.3-1.8,1.7 M8.8,16.3H38 M8.8,23.2h7.4 M8.8,30.1h4.8"/>
</svg>
