<svg width="42" height="43" viewBox="0 0 42 43" fill="none" xmlns="http://www.w3.org/2000/svg">
<path d="M22.2471 1.61738C22.2471 1.18842 22.0773 0.777035 21.775 0.473718C21.4728 0.170401 21.0628 0 20.6353 0C20.2078 0 19.7979 0.170401 19.4956 0.473718C19.1933 0.777035 19.0235 1.18842 19.0235 1.61738V4.313H5.05434C3.7719 4.313 2.54198 4.82421 1.63515 5.73416C0.728322 6.64411 0.218872 7.87827 0.218872 9.16513V26.9563C0.218872 28.2431 0.728322 29.4773 1.63515 30.3872C2.54198 31.2972 3.7719 31.8084 5.05434 31.8084H11.8391L9.44065 38.8321C9.36952 39.0337 9.33892 39.2474 9.35062 39.4608C9.36232 39.6743 9.41609 39.8834 9.50881 40.0759C9.60154 40.2684 9.73138 40.4405 9.89083 40.5824C10.0503 40.7242 10.2362 40.8329 10.4378 40.9022C10.6393 40.9714 10.8526 40.9999 11.0652 40.986C11.2779 40.972 11.4856 40.9159 11.6765 40.8209C11.8673 40.7258 12.0375 40.5937 12.1772 40.4323C12.3169 40.2708 12.4233 40.0832 12.4902 39.8802L15.2475 31.8084H19.0235V40.4344C19.0235 40.8633 19.1933 41.2747 19.4956 41.5781C19.7979 41.8814 20.2078 42.0518 20.6353 42.0518C21.0628 42.0518 21.4728 41.8814 21.775 41.5781C22.0773 41.2747 22.2471 40.8633 22.2471 40.4344V31.8084H26.0231L28.7825 39.8802C28.9243 40.2818 29.2182 40.611 29.6005 40.7964C29.9828 40.9818 30.4225 41.0084 30.8242 40.8704C31.2258 40.7323 31.557 40.4408 31.7457 40.0592C31.9345 39.6775 31.9655 39.2366 31.8321 38.8321L29.4316 31.8084H36.2163C37.4987 31.8084 38.7286 31.2972 39.6355 30.3872C40.5423 29.4773 41.0518 28.2431 41.0518 26.9563V9.16513C41.0518 7.87827 40.5423 6.64411 39.6355 5.73416C38.7286 4.82421 37.4987 4.313 36.2163 4.313H22.2471V1.61738ZM36.2163 28.5736H5.05434C4.62686 28.5736 4.21689 28.4032 3.91461 28.0999C3.61234 27.7966 3.44252 27.3852 3.44252 26.9563V9.16513C3.44252 8.73617 3.61234 8.32479 3.91461 8.02147C4.21689 7.71815 4.62686 7.54775 5.05434 7.54775H36.2163C36.6438 7.54775 37.0537 7.71815 37.356 8.02147C37.6583 8.32479 37.8281 8.73617 37.8281 9.16513V26.9563C37.8281 27.3852 37.6583 27.7966 37.356 28.0999C37.0537 28.4032 36.6438 28.5736 36.2163 28.5736Z" fill="white"/>
</svg>
