<svg width="48" height="41" viewBox="0 0 48 41" fill="none" xmlns="http://www.w3.org/2000/svg">
<path d="M24.3429 0.117691L46.6257 9.56441C46.8956 9.67775 47.1261 9.86868 47.2882 10.1132C47.4503 10.3577 47.5368 10.6449 47.5368 10.9387C47.5368 11.2324 47.4503 11.5196 47.2882 11.7641C47.1261 12.0086 46.8956 12.1996 46.6257 12.3129L37.6294 16.1234V25.8525C37.6293 26.1269 37.554 26.396 37.4115 26.6301C37.1864 26.9758 36.9242 27.2971 36.6331 27.5887C36.1399 28.0979 35.3951 28.7422 34.3295 29.3707C32.1904 30.6395 28.8311 31.8169 23.7645 31.8169C22.4315 31.8169 21.2173 31.7354 20.1081 31.5922C19.7266 31.5311 19.3837 31.3232 19.1523 31.0126C18.9208 30.7019 18.8191 30.3129 18.8685 29.9281C18.918 29.5434 19.1149 29.1931 19.4173 28.9517C19.7197 28.7102 20.1039 28.5966 20.4884 28.6348C21.4629 28.7601 22.5523 28.8337 23.7645 28.8337C28.3538 28.8337 31.1842 27.7737 32.8202 26.8032C33.4342 26.4492 34.0007 26.0136 34.5018 25.5105L34.6583 25.3414V17.3803L24.3429 21.7556C24.1598 21.8333 23.9632 21.8733 23.7645 21.8733C23.5658 21.8733 23.3691 21.8333 23.1861 21.7556L11.3852 16.7519V23.0563C12.3795 23.3129 13.2866 23.8339 14.0135 24.5638C15.1604 25.7133 15.8417 27.368 15.8417 29.3926V38.3421C15.8408 38.5927 15.7779 38.8391 15.6586 39.0592C15.5393 39.2793 15.3674 39.4662 15.1584 39.603C15.0245 39.6888 14.8856 39.7665 14.7424 39.8357C14.4094 40.0009 14.0653 40.1425 13.7125 40.2593C12.4802 40.6539 11.1929 40.8473 9.89963 40.832C8.60635 40.8473 7.31902 40.6539 6.08679 40.2593C5.73401 40.1425 5.38984 40.0009 5.05683 39.8357C4.90655 39.7628 4.76101 39.6804 4.62108 39.5891C4.41845 39.4518 4.25215 39.2671 4.13654 39.0509C4.02094 38.8347 3.9595 38.5935 3.95755 38.3481V29.3985C3.95755 27.37 4.63891 25.7193 5.78573 24.5658C6.51209 23.8371 7.41972 23.3172 8.41411 23.0603V15.4969L0.903318 12.3089C0.635346 12.1943 0.406846 12.0031 0.246237 11.7591C0.0856292 11.5151 0 11.2291 0 10.9367C0 10.6442 0.0856292 10.3582 0.246237 10.1142C0.406846 9.87022 0.635346 9.67903 0.903318 9.56441L23.1861 0.117691C23.3691 0.0400195 23.5658 0 23.7645 0C23.9632 0 24.1598 0.0400195 24.3429 0.117691ZM23.7645 18.7645L42.2285 10.9367L23.7645 3.10882L5.30046 10.9367L23.7645 18.7645ZM9.89963 25.8525C9.15291 25.8525 8.42401 26.133 7.88526 26.6739C7.36038 27.2009 6.92859 28.0661 6.92859 29.3946V37.3934C7.52082 37.6023 8.5072 37.8469 9.89963 37.8469C11.2921 37.8469 12.2784 37.6023 12.8707 37.3934V29.3926C12.8707 28.0621 12.4389 27.1989 11.914 26.6719C11.6485 26.4089 11.3339 26.2011 10.9882 26.0605C10.6425 25.9199 10.2726 25.8492 9.89963 25.8525Z" fill="white"/>
</svg>
