<svg width="43" height="35" viewBox="0 0 43 35" fill="none" xmlns="http://www.w3.org/2000/svg">
<path fill-rule="evenodd" clip-rule="evenodd" d="M37.0801 0L37.0725 0.00948049C38.536 0.0899338 39.9129 0.723264 40.9204 1.77937C41.9278 2.83548 42.4893 4.23419 42.4895 5.68816V28.4408C42.4895 29.9494 41.8854 31.3962 40.81 32.463C39.7346 33.5297 38.276 34.129 36.7552 34.129H6.17208C4.65124 34.129 3.19269 33.5297 2.11729 32.463C1.0419 31.3962 0.437744 29.9494 0.437744 28.4408V5.68816C0.437744 4.17957 1.0419 2.73276 2.11729 1.66602C3.19269 0.599287 4.65124 0 6.17208 0H37.0801ZM18.5506 3.79211H30.0193L23.5471 11.3763H12.0784L18.5506 3.79211ZM8.25555 11.3763L14.7296 3.79211H6.17208C5.66513 3.79211 5.17895 3.99187 4.82048 4.34745C4.46202 4.70303 4.26063 5.1853 4.26063 5.68816V11.3763H8.25555ZM4.26063 15.1684V28.4408C4.26063 28.9437 4.46202 29.4259 4.82048 29.7815C5.17895 30.1371 5.66513 30.3369 6.17208 30.3369H36.7552C37.2621 30.3369 37.7483 30.1371 38.1068 29.7815C38.4652 29.4259 38.6666 28.9437 38.6666 28.4408V15.1684H4.26063ZM38.6666 11.3763V5.68816C38.6666 5.1853 38.4652 4.70303 38.1068 4.34745C37.7483 3.99187 37.2621 3.79211 36.7552 3.79211H33.8421L27.37 11.3763H38.6666Z" fill="white"/>
</svg>
