<svg width="61" height="61" viewBox="0 0 61 61" fill="none" xmlns="http://www.w3.org/2000/svg">
<path d="M39.3958 12.7084C37.0365 12.7084 34.7738 13.6456 33.1055 15.3139C31.4372 16.9822 30.5 19.2449 30.5 21.6042C30.5 23.9635 31.4372 26.2262 33.1055 27.8945C34.7738 29.5628 37.0365 30.5 39.3958 30.5C41.7552 30.5 44.0178 29.5628 45.6861 27.8945C47.3544 26.2262 48.2917 23.9635 48.2917 21.6042C48.2917 19.2449 47.3544 16.9822 45.6861 15.3139C44.0178 13.6456 41.7552 12.7084 39.3958 12.7084ZM25.4167 21.6042C25.417 19.4136 25.9321 17.2536 26.9205 15.2987C27.909 13.3437 29.343 11.6484 31.107 10.3494C32.871 9.05052 34.9156 8.18435 37.0759 7.8208C39.2362 7.45725 41.4516 7.60649 43.5436 8.25648C45.6356 8.90648 47.5456 10.039 49.1195 11.5628C50.6933 13.0866 51.8871 14.9589 52.6044 17.0288C53.3217 19.0987 53.5425 21.3082 53.249 23.4791C52.9555 25.6499 52.1559 27.7215 50.9147 29.5266L57.7136 36.3281L54.1197 39.922L47.3208 33.123C45.2218 34.5675 42.7679 35.4108 40.2244 35.5619C37.6809 35.7129 35.1445 35.1659 32.8893 33.9799C30.6342 32.794 28.746 31.0142 27.429 28.8331C26.112 26.6519 25.4161 24.1522 25.4167 21.6042ZM7.625 10.1667H20.3333V15.25H7.625V10.1667ZM7.625 27.9584H20.3333V33.0417H7.625V27.9584ZM53.375 45.75V50.8334H7.625V45.75H53.375Z" fill="white"/>
</svg>
